<svg xmlns="http://www.w3.org/2000/svg" xmlns:xlink="http://www.w3.org/1999/xlink" version="1.1" viewBox="0 0 90.82 72.8375" overflow="visible" enable-background="new 0 0 90.82 58.27" xml:space="preserve" x="0px" y="0px"><path d="M67.31,10.01c0-3.56,2.89-6.44,6.44-6.44s6.44,2.88,6.44,6.44c0,3.56-2.89,6.44-6.44,6.44S67.31,13.57,67.31,10.01z   M61.1,20.74c0-2.98,2.9-4.92,7.2-5.3c1.47,1.46,3.48,2.36,5.71,2.36c1.4,0,2.72-0.35,3.87-0.98c0.33,0.09,0.71,0.21,1.16,0.34  c6.02,2.31,8.55,5.8,8.55,9.48l0,5.95c-11.85-5.05-17.35-7.84-26.48-8.52L61.1,20.74z M39.07,6.44c0-3.56,2.89-6.44,6.44-6.44  c3.56,0,6.44,2.89,6.44,6.44c0,3.56-2.89,6.44-6.44,6.44C41.96,12.89,39.07,10,39.07,6.44z M31.33,20.76c0-3.55,4.11-6.56,9.8-7.6  c1.21,0.74,2.64,1.16,4.17,1.16c1.57,0,3.03-0.45,4.26-1.22c5.87,0.98,10.15,4.04,10.15,7.66l0,3.17c-4.24-0.7-9.06-1.1-14.19-1.1  c-5.12,0-9.95,0.4-14.19,1.1L31.33,20.76z M23.65,10.01c0,3.56-2.89,6.44-6.44,6.44s-6.44-2.88-6.44-6.44  c0-3.56,2.89-6.44,6.44-6.44S23.65,6.45,23.65,10.01z M29.86,20.74l0,3.33c-9.13,0.68-14.64,3.47-26.48,8.52l0-5.95  c0-3.68,2.53-7.17,8.55-9.48c0.45-0.14,0.83-0.26,1.16-0.34c1.15,0.62,2.47,0.98,3.87,0.98c2.23,0,4.25-0.9,5.71-2.36  C26.96,15.83,29.86,17.76,29.86,20.74z M27.81,52.67l0-1.42c0-4.47,5.22-8.25,12.41-9.52c1.49,1.07,3.32,1.69,5.29,1.69  c1.97,0,3.8-0.63,5.29-1.69c7.19,1.27,12.41,5.05,12.41,9.52l0,1.39c15.37-2.29,26.39-7.46,27.51-13.57  c0.06,0.34,0.09,0.68,0.09,1.03c0,0.1,0,0.19-0.01,0.29c0,0.1,0.01,0.19,0.01,0.29c0,0.1,0,0.19-0.01,0.29  c0,0.1,0.01,0.19,0.01,0.29c0,0.1,0,0.19-0.01,0.29c0,0.1,0.01,0.19,0.01,0.29c0,0.1,0,0.19-0.01,0.29c0,0.1,0.01,0.19,0.01,0.29  c0,8.76-20.33,15.86-45.41,15.86C20.33,58.27,0,51.17,0,42.41c0-0.1,0-0.19,0.01-0.29C0,42.02,0,41.93,0,41.83  c0-0.1,0-0.19,0.01-0.29C0,41.45,0,41.35,0,41.25c0-0.1,0-0.19,0.01-0.29C0,40.87,0,40.77,0,40.68c0-0.1,0-0.19,0.01-0.29  C0,40.29,0,40.2,0,40.1c0-0.35,0.03-0.69,0.09-1.03C1.22,45.21,12.33,50.39,27.81,52.67z M37.47,33.65c0-4.44,3.6-8.04,8.04-8.04  c4.44,0,8.04,3.6,8.04,8.04c0,4.44-3.6,8.04-8.04,8.04C41.07,41.69,37.47,38.09,37.47,33.65z"/><text x="0" y="73.27000000000001" fill="#000000" font-size="5px" font-weight="bold" font-family="'Helvetica Neue', Helvetica, Arial-Unicode, Arial, Sans-serif">Created by Jesus Puertas</text><text x="0" y="78.27000000000001" fill="#000000" font-size="5px" font-weight="bold" font-family="'Helvetica Neue', Helvetica, Arial-Unicode, Arial, Sans-serif">from the Noun Project</text></svg>