<svg xmlns="http://www.w3.org/2000/svg" xmlns:xlink="http://www.w3.org/1999/xlink" viewBox="0 0 100 125" version="1.1" x="0px" y="0px"><title>Star 5.5</title><desc>Created with Sketch.</desc><g stroke="none" stroke-width="1" fill="none" fill-rule="evenodd"><g fill-rule="nonzero" fill="#000000"><path d="M49.1096508,63.1702202 C49.6023967,62.9111683 50.3941399,62.9074063 50.8940417,63.1702202 L60.062547,67.9903887 C62.016082,69.0174228 63.2967475,68.0834457 62.9241922,65.9112817 L61.1731635,55.702001 C61.0790574,55.1533204 61.3201416,54.3991653 61.7245707,54.0049444 L69.1420472,46.7746917 C70.7224903,45.2341405 70.2299727,43.7275404 68.048996,43.410626 L57.7982955,41.921112 C57.2473888,41.8410605 56.6046438,41.3787291 56.3546929,40.8722733 L51.7704403,31.5835629 C50.7936728,29.6044158 49.2086146,29.6072628 48.2332522,31.5835629 L43.6489996,40.8722733 C43.4026266,41.3714795 42.7643042,41.839898 42.205397,41.921112 L31.9546965,43.410626 C29.7705779,43.727997 29.2834757,45.2363566 30.8616452,46.7746917 L38.2791218,54.0049444 C38.6777617,54.3935222 38.9260017,55.1453522 38.8305289,55.702001 L37.0795003,65.9112817 C36.7064083,68.0865749 37.9904207,69.0159454 39.9411455,67.9903887 L49.1096508,63.1702202 Z M42.2678511,72.4160458 C36.6494719,75.3698026 31.0777224,71.3264193 32.1514586,65.0660564 L33.6285203,56.4541263 L27.3715868,50.3551235 C22.8262225,45.9244883 24.9499432,39.3759655 31.2357049,38.4625909 L39.8825743,37.2061272 L43.7495718,29.3707344 C46.5587615,23.6786944 53.4430426,23.674868 56.2541207,29.3707344 L60.1211182,37.2061272 L68.7679876,38.4625909 C75.0495266,39.3753519 77.1805256,45.9215099 72.6321057,50.3551235 L66.3751722,56.4541263 L67.8522338,65.0660564 C68.9252488,71.3222137 63.3579975,75.3717882 57.7358413,72.4160458 L50.0018462,68.3500439 L42.2678511,72.4160458 Z"/><path d="M50,92.5 C26.5278981,92.5 7.5,73.4721019 7.5,50 C7.5,26.5278981 26.5278981,7.5 50,7.5 C73.4721019,7.5 92.5,26.5278981 92.5,50 C92.5,73.4721019 73.4721019,92.5 50,92.5 Z M50,87.5 C70.7106781,87.5 87.5,70.7106781 87.5,50 C87.5,29.2893219 70.7106781,12.5 50,12.5 C29.2893219,12.5 12.5,29.2893219 12.5,50 C12.5,70.7106781 29.2893219,87.5 50,87.5 Z"/></g></g><text x="0" y="115" fill="#000000" font-size="5px" font-weight="bold" font-family="'Helvetica Neue', Helvetica, Arial-Unicode, Arial, Sans-serif">Created by Landan Lloyd</text><text x="0" y="120" fill="#000000" font-size="5px" font-weight="bold" font-family="'Helvetica Neue', Helvetica, Arial-Unicode, Arial, Sans-serif">from the Noun Project</text></svg>